<svg width="50" height="50" viewBox="0 0 50 50" fill="none" xmlns="http://www.w3.org/2000/svg">
<path fill-rule="evenodd" clip-rule="evenodd" d="M24.449 46C34.8136 46 43.4473 36.9542 43.4473 25.5C43.4473 14.0458 34.8136 5 24.449 5C14.0844 5 5.45068 14.0458 5.45068 25.5C5.45068 36.9542 14.0844 46 24.449 46ZM24.449 48C36.046 48 45.4473 37.9264 45.4473 25.5C45.4473 13.0736 36.046 3 24.449 3C12.8519 3 3.45068 13.0736 3.45068 25.5C3.45068 37.9264 12.8519 48 24.449 48Z" fill="#6D5C53"/>
<path fill-rule="evenodd" clip-rule="evenodd" d="M24.4489 26C32.4661 26 38.1513 20.8976 38.1513 15.5C38.1513 10.1024 32.4661 5 24.4489 5C16.4318 5 10.7466 10.1024 10.7466 15.5C10.7466 20.8976 16.4318 26 24.4489 26ZM24.4489 28C33.1211 28 40.1513 22.4036 40.1513 15.5C40.1513 8.59644 33.1211 3 24.4489 3C15.7768 3 8.74658 8.59644 8.74658 15.5C8.74658 22.4036 15.7768 28 24.4489 28Z" fill="#6D5C53"/>
<path fill-rule="evenodd" clip-rule="evenodd" d="M41.5853 47.8209C41.1086 48.0998 40.4961 47.9394 40.2172 47.4627L14.4815 3.46756C13.7089 2.1468 11.6868 2.69481 11.6868 4.22494L11.6868 46.9577C11.6868 47.51 11.239 47.9577 10.6868 47.9577C10.1345 47.9577 9.68675 47.51 9.68675 46.9577L9.68675 4.22494C9.68675 0.654629 14.4051 -0.624056 16.2078 2.45771L41.9436 46.4528C42.2224 46.9295 42.062 47.542 41.5853 47.8209Z" fill="#6D5C53"/>
</svg>
